<?xml version="1.0"?>
<svg xmlns="http://www.w3.org/2000/svg" xmlns:xlink="http://www.w3.org/1999/xlink" xmlns:svgjs="http://svgjs.com/svgjs" version="1.1" width="512" height="512" x="0" y="0" viewBox="0 0 512 512" style="enable-background:new 0 0 512 512" xml:space="preserve" class=""><g><g xmlns="http://www.w3.org/2000/svg"><path d="m344.739 336h-56c-13.233 0-24 10.766-24 24v48c0 13.234 10.767 24 24 24h56c13.233 0 24-10.766 24-24v-48c0-13.234-10.767-24-24-24zm8 24v16h-28v-24h20c4.411 0 8 3.589 8 8zm-64-8h20v24h-28v-16c0-4.411 3.589-8 8-8zm-8 56v-16h28v24h-20c-4.411 0-8-3.589-8-8zm64 8h-20v-24h28v16c0 4.411-3.589 8-8 8z" fill="#ffffff" data-original="#000000" style="" class=""/><path d="m200.739 408c-4.418 0-8 3.582-8 8v8c0 4.418 3.582 8 8 8s8-3.582 8-8v-8c0-4.418-3.582-8-8-8z" fill="#ffffff" data-original="#000000" style="" class=""/><path d="m396.739 96c37.495 0 68-30.505 68-68v-20c0-4.418-3.582-8-8-8h-36c-25.949 0-48.541 14.615-60 36.042-11.459-21.427-34.051-36.042-60-36.042h-36c-4.418 0-8 3.582-8 8v20c0 37.495 30.505 68 68 68h28v24c-9.722 0-22.482 0-32 0-4.418 0-8 3.582-8 8s3.582 8 8 8v17.221l-35.539-29.424c-21.126-17.488-51.794-17.49-72.922.001l-156.316 129.415c-10.215 8.458-11.644 23.574-3.182 33.793l5.103 6.162c7.801 9.423 21.033 11.203 30.855 5.266v197.566h-16c-4.418 0-8 3.582-8 8s3.582 8 8 8h352c4.418 0 8-3.582 8-8s-3.582-8-8-8h-16v-197.586c4.405 2.664 9.466 3.829 14.619 3.343 11.447-1.077 16.175-8.514 21.339-14.751 8.459-10.215 7.038-25.332-3.182-33.792l-40.776-33.76v-83.454c4.418 0 8-3.582 8-8s-3.582-8-8-8c-9.518 0-22.283 0-32 0v-24zm-252 400v-136c0-4.411 3.589-8 8-8h64c4.411 0 8 3.589 8 8v136zm96 0v-136c0-13.233-10.767-24-24-24h-64c-13.233 0-24 10.767-24 24v136h-24v-210.467l138.899-114.993c2.955-2.448 7.245-2.447 10.202 0l138.898 114.994v210.466zm193.436-225.049c.395 4.195-1.913 5.984-6.905 12.014-2.832 3.421-7.877 3.863-11.264 1.06-56.812-47.035-119.303-98.771-151.962-125.81-8.868-7.341-21.74-7.345-30.61 0-23.076 19.105-135.878 112.494-151.963 125.81-3.38 2.799-8.426 2.368-11.264-1.06-5.19-6.268-7.296-7.86-6.905-12.014.2-2.128 1.217-4.05 2.863-5.413l156.315-129.416c15.215-12.596 37.301-12.596 52.516 0 68.582 56.78 86.61 71.706 156.315 129.416 1.648 1.363 2.664 3.285 2.864 5.413zm-49.436-64.743-48-39.74v-30.468h48zm36-190.208h28v12c0 28.673-23.327 52-52 52h-13.904l31.025-25.854c3.395-2.829 3.854-7.873 1.024-11.268-2.828-3.394-7.874-3.852-11.267-1.024l-34.878 29.066v-2.92c0-28.673 23.327-52 52-52zm-148 12v-12h28c28.673 0 52 23.327 52 52v2.92l-34.879-29.066c-3.393-2.828-8.438-2.371-11.267 1.024s-2.37 8.439 1.024 11.268l31.026 25.854h-13.904c-28.673 0-52-23.327-52-52z" fill="#ffffff" data-original="#000000" style="" class=""/></g></g></svg>
